<svg width="120" height="120" viewBox="0 0 120 120" fill="none" xmlns="http://www.w3.org/2000/svg">
<path fill-rule="evenodd" clip-rule="evenodd" d="M37.022 86.7842C54.1345 84.2852 65.9175 84.5008 83.0525 86.8725C85.594 87.2243 87.5 89.425 87.5 92.0443C87.5 93.244 87.0872 94.4103 86.3425 95.3183C84.9717 96.9898 83.643 98.5498 82.3525 100H88.9557C89.3707 99.5053 89.7882 99.0015 90.2087 98.4888C91.7025 96.6673 92.5 94.3748 92.5 92.0443C92.5 86.982 88.8053 82.621 83.738 81.9197C66.1978 79.492 53.9368 79.261 36.2995 81.8368C31.18 82.5842 27.5 87.0157 27.5 92.1122C27.5 94.376 28.237 96.6103 29.635 98.4258C30.0465 98.96 30.4553 99.4848 30.862 100H37.3023C36.1005 98.5653 34.8665 97.0243 33.5965 95.375C32.8885 94.4558 32.5 93.3 32.5 92.1122C32.5 89.4205 34.4347 87.162 37.022 86.7842Z" fill="white"/>
<path fill-rule="evenodd" clip-rule="evenodd" d="M60 62.5C68.2843 62.5 75 55.7843 75 47.5C75 39.2157 68.2843 32.5 60 32.5C51.7157 32.5 45 39.2157 45 47.5C45 55.7843 51.7157 62.5 60 62.5ZM60 67.5C71.0457 67.5 80 58.5457 80 47.5C80 36.4542 71.0457 27.5 60 27.5C48.9542 27.5 40 36.4542 40 47.5C40 58.5457 48.9542 67.5 60 67.5Z" fill="white"/>
<path fill-rule="evenodd" clip-rule="evenodd" d="M60 105C84.8528 105 105 84.8528 105 60C105 35.1472 84.8528 15 60 15C35.1472 15 15 35.1472 15 60C15 84.8528 35.1472 105 60 105ZM60 110C87.6143 110 110 87.6143 110 60C110 32.3857 87.6143 10 60 10C32.3857 10 10 32.3857 10 60C10 87.6143 32.3857 110 60 110Z" fill="white"/>
</svg>
