<svg width="563" height="108" viewBox="0 0 563 108" fill="none" xmlns="http://www.w3.org/2000/svg">
<g filter="url(#filter0_d_11_31)">
<path d="M41.9091 28.1818V37.2727H4.27273V28.1818H41.9091ZM15.5455 98V18.5455C15.5455 14.5455 16.4848 11.2121 18.3636 8.54545C20.2424 5.87878 22.6818 3.87878 25.6818 2.54545C28.6818 1.21211 31.8485 0.545448 35.1818 0.545448C37.8182 0.545448 39.9697 0.757571 41.6364 1.18182C43.303 1.60606 44.5455 1.99999 45.3636 2.36363L42.2727 11.6364C41.7273 11.4545 40.9697 11.2273 40 10.9545C39.0606 10.6818 37.8182 10.5454 36.2727 10.5454C32.7273 10.5454 30.1667 11.4394 28.5909 13.2273C27.0455 15.0151 26.2727 17.6364 26.2727 21.0909V98H15.5455ZM56.9432 98V28.1818H67.3068V38.7273H68.0341C69.3068 35.2727 71.6098 32.4697 74.9432 30.3182C78.2765 28.1667 82.0341 27.0909 86.2159 27.0909C87.0038 27.0909 87.9886 27.1061 89.1705 27.1364C90.3523 27.1667 91.2462 27.2121 91.8523 27.2727V38.1818C91.4886 38.0909 90.6553 37.9545 89.3523 37.7727C88.0795 37.5606 86.7311 37.4545 85.3068 37.4545C81.9129 37.4545 78.8826 38.1667 76.2159 39.5909C73.5795 40.9848 71.4886 42.9242 69.9432 45.4091C68.428 47.8636 67.6705 50.6667 67.6705 53.8182V98H56.9432ZM131.716 99.4545C124.989 99.4545 119.186 97.9697 114.307 95C109.458 92 105.716 87.8182 103.08 82.4545C100.473 77.0606 99.1705 70.7879 99.1705 63.6364C99.1705 56.4848 100.473 50.1818 103.08 44.7273C105.716 39.2424 109.383 34.9697 114.08 31.9091C118.807 28.8182 124.322 27.2727 130.625 27.2727C134.261 27.2727 137.852 27.8788 141.398 29.0909C144.943 30.303 148.17 32.2727 151.08 35C153.989 37.697 156.307 41.2727 158.034 45.7273C159.761 50.1818 160.625 55.6667 160.625 62.1818V66.7273H106.807V57.4545H149.716C149.716 53.5151 148.928 50 147.352 46.9091C145.807 43.8182 143.595 41.3788 140.716 39.5909C137.867 37.803 134.504 36.9091 130.625 36.9091C126.352 36.9091 122.655 37.9697 119.534 40.0909C116.443 42.1818 114.064 44.9091 112.398 48.2727C110.731 51.6364 109.898 55.2424 109.898 59.0909V65.2727C109.898 70.5455 110.807 75.0152 112.625 78.6818C114.473 82.3182 117.034 85.0909 120.307 87C123.58 88.8788 127.383 89.8182 131.716 89.8182C134.534 89.8182 137.08 89.4242 139.352 88.6364C141.655 87.8182 143.64 86.6061 145.307 85C146.973 83.3636 148.261 81.3333 149.17 78.9091L159.534 81.8182C158.443 85.3333 156.61 88.4242 154.034 91.0909C151.458 93.7273 148.277 95.7879 144.489 97.2727C140.701 98.7273 136.443 99.4545 131.716 99.4545ZM206.216 99.4545C199.489 99.4545 193.686 97.9697 188.807 95C183.958 92 180.216 87.8182 177.58 82.4545C174.973 77.0606 173.67 70.7879 173.67 63.6364C173.67 56.4848 174.973 50.1818 177.58 44.7273C180.216 39.2424 183.883 34.9697 188.58 31.9091C193.307 28.8182 198.822 27.2727 205.125 27.2727C208.761 27.2727 212.352 27.8788 215.898 29.0909C219.443 30.303 222.67 32.2727 225.58 35C228.489 37.697 230.807 41.2727 232.534 45.7273C234.261 50.1818 235.125 55.6667 235.125 62.1818V66.7273H181.307V57.4545H224.216C224.216 53.5151 223.428 50 221.852 46.9091C220.307 43.8182 218.095 41.3788 215.216 39.5909C212.367 37.803 209.004 36.9091 205.125 36.9091C200.852 36.9091 197.155 37.9697 194.034 40.0909C190.943 42.1818 188.564 44.9091 186.898 48.2727C185.231 51.6364 184.398 55.2424 184.398 59.0909V65.2727C184.398 70.5455 185.307 75.0152 187.125 78.6818C188.973 82.3182 191.534 85.0909 194.807 87C198.08 88.8788 201.883 89.8182 206.216 89.8182C209.034 89.8182 211.58 89.4242 213.852 88.6364C216.155 87.8182 218.14 86.6061 219.807 85C221.473 83.3636 222.761 81.3333 223.67 78.9091L234.034 81.8182C232.943 85.3333 231.11 88.4242 228.534 91.0909C225.958 93.7273 222.777 95.7879 218.989 97.2727C215.201 98.7273 210.943 99.4545 206.216 99.4545ZM262.17 4.90909V98H251.443V4.90909H262.17ZM302.364 99.6364C297.939 99.6364 293.924 98.803 290.318 97.1364C286.712 95.4394 283.848 93 281.727 89.8182C279.606 86.6061 278.545 82.7273 278.545 78.1818C278.545 74.1818 279.333 70.9394 280.909 68.4545C282.485 65.9394 284.591 63.9697 287.227 62.5455C289.864 61.1212 292.773 60.0606 295.955 59.3636C299.167 58.6364 302.394 58.0606 305.636 57.6364C309.879 57.0909 313.318 56.6818 315.955 56.4091C318.621 56.1061 320.561 55.6061 321.773 54.9091C323.015 54.2121 323.636 53 323.636 51.2727V50.9091C323.636 46.4242 322.409 42.9394 319.955 40.4545C317.53 37.9697 313.848 36.7273 308.909 36.7273C303.788 36.7273 299.773 37.8485 296.864 40.0909C293.955 42.3333 291.909 44.7273 290.727 47.2727L280.545 43.6364C282.364 39.3939 284.788 36.0909 287.818 33.7273C290.879 31.3333 294.212 29.6667 297.818 28.7273C301.455 27.7576 305.03 27.2727 308.545 27.2727C310.788 27.2727 313.364 27.5455 316.273 28.0909C319.212 28.6061 322.045 29.6818 324.773 31.3182C327.53 32.9545 329.818 35.4242 331.636 38.7273C333.455 42.0303 334.364 46.4545 334.364 52V98H323.636V88.5455H323.091C322.364 90.0606 321.152 91.6818 319.455 93.4091C317.758 95.1364 315.5 96.6061 312.682 97.8182C309.864 99.0303 306.424 99.6364 302.364 99.6364ZM304 90C308.242 90 311.818 89.1667 314.727 87.5C317.667 85.8333 319.879 83.6818 321.364 81.0455C322.879 78.4091 323.636 75.6364 323.636 72.7273V62.9091C323.182 63.4545 322.182 63.9545 320.636 64.4091C319.121 64.8333 317.364 65.2121 315.364 65.5455C313.394 65.8485 311.47 66.1212 309.591 66.3636C307.742 66.5758 306.242 66.7576 305.091 66.9091C302.303 67.2727 299.697 67.8636 297.273 68.6818C294.879 69.4697 292.939 70.6667 291.455 72.2727C290 73.8485 289.273 76 289.273 78.7273C289.273 82.4545 290.652 85.2727 293.409 87.1818C296.197 89.0606 299.727 90 304 90ZM364.67 56V98H353.943V28.1818H364.307V39.0909H365.216C366.852 35.5455 369.337 32.697 372.67 30.5455C376.004 28.3636 380.307 27.2727 385.58 27.2727C390.307 27.2727 394.443 28.2424 397.989 30.1818C401.534 32.0909 404.292 35 406.261 38.9091C408.231 42.7879 409.216 47.697 409.216 53.6364V98H398.489V54.3636C398.489 48.8788 397.064 44.6061 394.216 41.5455C391.367 38.4545 387.458 36.9091 382.489 36.9091C379.064 36.9091 376.004 37.6515 373.307 39.1364C370.64 40.6212 368.534 42.7879 366.989 45.6364C365.443 48.4848 364.67 51.9394 364.67 56ZM457.182 99.4545C450.636 99.4545 445 97.9091 440.273 94.8182C435.545 91.7273 431.909 87.4697 429.364 82.0455C426.818 76.6212 425.545 70.4242 425.545 63.4545C425.545 56.3636 426.848 50.1061 429.455 44.6818C432.091 39.2273 435.758 34.9697 440.455 31.9091C445.182 28.8182 450.697 27.2727 457 27.2727C461.909 27.2727 466.333 28.1818 470.273 30C474.212 31.8182 477.439 34.3636 479.955 37.6364C482.47 40.9091 484.03 44.7273 484.636 49.0909H473.909C473.091 45.9091 471.273 43.0909 468.455 40.6364C465.667 38.1515 461.909 36.9091 457.182 36.9091C453 36.9091 449.333 38 446.182 40.1818C443.061 42.3333 440.621 45.3788 438.864 49.3182C437.136 53.2273 436.273 57.8182 436.273 63.0909C436.273 68.4848 437.121 73.1818 438.818 77.1818C440.545 81.1818 442.97 84.2879 446.091 86.5C449.242 88.7121 452.939 89.8182 457.182 89.8182C459.97 89.8182 462.5 89.3333 464.773 88.3636C467.045 87.3939 468.97 86 470.545 84.1818C472.121 82.3636 473.242 80.1818 473.909 77.6364H484.636C484.03 81.7576 482.53 85.4697 480.136 88.7727C477.773 92.0455 474.636 94.6515 470.727 96.5909C466.848 98.5 462.333 99.4545 457.182 99.4545ZM529.591 99.4545C522.864 99.4545 517.061 97.9697 512.182 95C507.333 92 503.591 87.8182 500.955 82.4545C498.348 77.0606 497.045 70.7879 497.045 63.6364C497.045 56.4848 498.348 50.1818 500.955 44.7273C503.591 39.2424 507.258 34.9697 511.955 31.9091C516.682 28.8182 522.197 27.2727 528.5 27.2727C532.136 27.2727 535.727 27.8788 539.273 29.0909C542.818 30.303 546.045 32.2727 548.955 35C551.864 37.697 554.182 41.2727 555.909 45.7273C557.636 50.1818 558.5 55.6667 558.5 62.1818V66.7273H504.682V57.4545H547.591C547.591 53.5151 546.803 50 545.227 46.9091C543.682 43.8182 541.47 41.3788 538.591 39.5909C535.742 37.803 532.379 36.9091 528.5 36.9091C524.227 36.9091 520.53 37.9697 517.409 40.0909C514.318 42.1818 511.939 44.9091 510.273 48.2727C508.606 51.6364 507.773 55.2424 507.773 59.0909V65.2727C507.773 70.5455 508.682 75.0152 510.5 78.6818C512.348 82.3182 514.909 85.0909 518.182 87C521.455 88.8788 525.258 89.8182 529.591 89.8182C532.409 89.8182 534.955 89.4242 537.227 88.6364C539.53 87.8182 541.515 86.6061 543.182 85C544.848 83.3636 546.136 81.3333 547.045 78.9091L557.409 81.8182C556.318 85.3333 554.485 88.4242 551.909 91.0909C549.333 93.7273 546.152 95.7879 542.364 97.2727C538.576 98.7273 534.318 99.4545 529.591 99.4545Z" fill="black"/>
</g>
<defs>
<filter id="filter0_d_11_31" x="0.272705" y="0.545441" width="562.227" height="107.091" filterUnits="userSpaceOnUse" color-interpolation-filters="sRGB">
<feFlood flood-opacity="0" result="BackgroundImageFix"/>
<feColorMatrix in="SourceAlpha" type="matrix" values="0 0 0 0 0 0 0 0 0 0 0 0 0 0 0 0 0 0 127 0" result="hardAlpha"/>
<feOffset dy="4"/>
<feGaussianBlur stdDeviation="2"/>
<feComposite in2="hardAlpha" operator="out"/>
<feColorMatrix type="matrix" values="0 0 0 0 0 0 0 0 0 0 0 0 0 0 0 0 0 0 0.25 0"/>
<feBlend mode="normal" in2="BackgroundImageFix" result="effect1_dropShadow_11_31"/>
<feBlend mode="normal" in="SourceGraphic" in2="effect1_dropShadow_11_31" result="shape"/>
</filter>
</defs>
</svg>
